<?xml version="1.0" encoding="utf-8"?>
<!-- Generator: Adobe Illustrator 14.0.0, SVG Export Plug-In . SVG Version: 6.00 Build 43363)  -->
<!DOCTYPE svg PUBLIC "-//W3C//DTD SVG 1.1//EN" "http://www.w3.org/Graphics/SVG/1.1/DTD/svg11.dtd">
<svg version="1.1" xmlns="http://www.w3.org/2000/svg" xmlns:xlink="http://www.w3.org/1999/xlink" x="0px" y="0px" width="2272px"
	 height="1872px" viewBox="0 0 2272 1872" enable-background="new 0 0 2272 1872" xml:space="preserve">
<g id="back">
	<g>
		<rect fill="#FFFFFF" width="2272" height="1873"/>
	</g>
</g>
<g id="_x35_">
	<path fill="#72BDB9" d="M1900.701,911.818c0-126.123-88.35-237.909-224.402-307.138c20.344-36.767,31.501-76.698,31.501-118.44
		c0-182.387-212.862-330.24-475.441-330.24c-262.578,0-475.44,147.854-475.44,330.24c0,7.446,0.361,14.834,1.06,22.158
		C626.715,577.909,542,687.662,542,811.162c0,99.226,54.69,189.576,144.266,257.313c-32.037,48.354-49.912,102.168-49.912,158.886
		c0,210.137,245.249,380.486,547.778,380.486c302.53,0,547.779-170.35,547.779-380.486c0-13.151-0.961-26.146-2.836-38.955
		C1834.753,1119.042,1900.701,1020.781,1900.701,911.818z"/>
	<path fill="#72BDB9" d="M1900.701,911.818c0-126.123-88.35-237.909-224.402-307.138c20.344-36.767,31.501-76.698,31.501-118.44
		c0-182.387-212.862-330.24-475.441-330.24c-262.578,0-475.44,147.854-475.44,330.24c0,7.446,0.361,14.834,1.06,22.158
		C626.715,577.909,542,687.662,542,811.162c0,99.226,54.69,189.576,144.266,257.313c-32.037,48.354-49.912,102.168-49.912,158.886
		c0,210.137,245.249,380.486,547.778,380.486c302.53,0,547.779-170.35,547.779-380.486c0-13.151-0.961-26.146-2.836-38.955
		C1834.753,1119.042,1900.701,1020.781,1900.701,911.818z"/>
	<path fill="#89A523" d="M2084,1634c-49.495-129.986-132.426-229.587-232.033-274.531
		c-71.991-155.335-194.471-257.589-333.465-257.589c-71.801,0-139.192,27.294-197.497,75.087
		c-35.937-6.221-72.917-9.472-110.672-9.472c-295.168,0-543.101,198.317-612.862,466.505H2084z"/>
	<path fill="#216019" d="M1736,1634c-51.176-157.59-136.922-278.342-239.911-332.83c-74.436-188.322-201.073-312.29-344.787-312.29
		c-74.238,0-143.917,33.09-204.202,91.032c-37.156-7.542-75.392-11.483-114.43-11.483C527.48,1068.429,271.13,1308.86,199,1634H1736
		z"/>
	<path fill="#89A523" d="M2084,1634c-49.495-129.986-132.426-229.587-232.033-274.531
		c-71.991-155.335-194.471-257.589-333.465-257.589c-71.801,0-139.192,27.294-197.497,75.087
		c-35.937-6.221-72.917-9.472-110.672-9.472c-295.168,0-543.101,198.317-612.862,466.505H2084z"/>
	<path fill="#216019" d="M1736,1634c-51.176-157.59-136.922-278.342-239.911-332.83c-74.436-188.322-201.073-312.29-344.787-312.29
		c-74.238,0-143.917,33.09-204.202,91.032c-37.156-7.542-75.392-11.483-114.43-11.483C527.48,1068.429,271.13,1308.86,199,1634H1736
		z"/>
</g>
<g id="_x34_">
	<g>
		<polygon fill="#3A3A3C" points="1243.922,1172 1196.838,1172 1205.328,582.81 1234.66,582.81 		"/>
		<g>
			<path fill="#EEEFEA" d="M1465.84,702.902c-10.674-7.242-21.441-14.286-32.311-21.116c-21.716-13.708-43.769-26.703-66.077-39.161
				c-22.292-12.492-44.866-24.388-67.618-35.91c-19.077-9.633-38.316-18.923-57.681-27.952
				c-11.151-49.159-23.368-98.091-37.099-146.7c-7.319-26.089-15.188-52.062-23.513-77.937l-3.133-9.701l-3.24-9.678
				c-2.138-6.457-4.367-12.894-6.622-19.326c-4.531-12.859-9.175-25.694-14.318-38.423c0.033,0.917,0.085,1.829,0.122,2.745
				c-0.339-0.852-0.664-1.706-1.008-2.556c0.49,13.72,1.48,27.333,2.583,40.922c0.563,6.792,1.149,13.58,1.829,20.347l0.984,10.159
				l1.093,10.135c2.942,27.021,6.341,53.946,10.289,80.753c7.271,49.985,16.055,99.648,25.904,149.084
				c-14.002,16.137-27.786,32.46-41.281,49.031c-16.082,19.793-31.849,39.857-47.116,60.349
				c-15.294,20.468-30.138,41.322-44.382,62.689c-7.142,10.667-14.104,21.487-20.9,32.45c-6.776,10.979-13.4,22.09-19.53,33.624
				c10.455-7.83,20.415-16.082,30.224-24.465c9.789-8.399,19.411-16.942,28.854-25.638c18.926-17.358,37.252-35.229,55.127-53.486
				c17.902-18.233,35.306-36.896,52.394-55.828c12.944-14.375,25.662-28.944,38.188-43.679
				c17.443,8.351,34.994,16.473,52.674,24.324c23.319,10.325,46.816,20.275,70.597,29.63c23.763,9.389,47.781,18.24,72.138,26.379
				c12.167,4.093,24.435,7.973,36.797,11.654c12.373,3.658,24.833,7.135,37.57,10.024
				C1487.079,717.614,1476.502,710.167,1465.84,702.902z"/>
			<circle fill="#3A3A3C" cx="1221.653" cy="596.171" r="15.907"/>
		</g>
	</g>
	<g>
		<polygon fill="#3A3A3C" points="905.096,1328 864.455,1328 871.784,819.434 897.101,819.434 		"/>
		<g>
			<path fill="#EEEFEA" d="M1006.268,1030.968c-3.861-10.442-7.889-20.793-12.094-31.044c-8.37-20.525-17.336-40.719-26.75-60.663
				c-9.386-19.96-19.269-39.644-29.465-59.153c-8.563-16.339-17.412-32.519-26.479-48.577
				c16.839-40.119,32.816-80.614,47.569-121.642c7.953-21.995,15.462-44.183,22.602-66.532l2.668-8.385l2.581-8.423
				c1.74-5.607,3.404-11.247,5.048-16.895c3.271-11.304,6.452-22.648,9.228-34.168c-0.437,0.66-0.859,1.327-1.292,1.988
				c0.189-0.768,0.39-1.531,0.575-2.301c-6.542,9.881-12.678,19.938-18.723,30.035c-3.015,5.052-6.009,10.113-8.927,15.207
				l-4.407,7.628l-4.319,7.666c-11.494,20.453-22.62,41.067-33.301,61.875c-19.98,38.752-38.735,78.037-56.628,117.698
				c-17.932,4.305-35.804,8.851-53.598,13.715c-21.228,5.83-42.369,12.006-63.374,18.736c-21.013,6.698-41.903,13.894-62.63,21.75
				c-10.369,3.907-20.688,8.011-30.963,12.3c-10.27,4.31-20.497,8.788-30.59,13.812c11.271-0.251,22.408-1.048,33.503-2.013
				c11.09-0.986,22.134-2.156,33.13-3.524c22.002-2.692,43.841-6.045,65.556-9.896c21.724-3.82,43.311-8.192,64.812-12.912
				c16.305-3.599,32.548-7.448,48.74-11.509c8.059,14.618,16.309,29.13,24.784,43.517c11.195,18.954,22.703,37.734,34.708,56.238
				c11.977,18.52,24.402,36.789,37.422,54.729c6.491,8.979,13.159,17.861,19.993,26.651c6.853,8.778,13.858,17.473,21.354,25.894
				C1013.8,1051.959,1010.109,1041.421,1006.268,1030.968z"/>
			<circle fill="#3A3A3C" cx="888.346" cy="833.467" r="13.73"/>
		</g>
	</g>
	<g>
		<polygon fill="#3A3A3C" points="1548.397,1284 1511.63,1284 1518.261,823.908 1541.165,823.908 		"/>
		<g>
			<path fill="#EEEFEA" d="M1628.219,1018.965c-2.976-9.623-6.104-19.171-9.399-28.638c-6.553-18.952-13.66-37.635-21.185-56.114
				c-7.498-18.492-15.459-36.759-23.71-54.884c-6.933-15.18-14.132-30.231-21.533-45.183
				c17.184-35.414,33.606-71.209,48.948-107.547c8.266-19.479,16.139-39.154,23.687-58.992l2.822-7.443l2.746-7.482
				c1.847-4.979,3.628-9.992,5.391-15.014c3.511-10.051,6.941-20.143,10.015-30.413c-0.428,0.575-0.841,1.156-1.265,1.732
				c0.208-0.684,0.427-1.363,0.633-2.05c-6.395,8.604-12.433,17.388-18.39,26.212c-2.972,4.416-5.925,8.84-8.812,13.298
				l-4.355,6.674l-4.279,6.713c-11.388,17.912-22.451,35.986-33.122,54.258c-19.953,34.025-38.825,68.592-56.938,103.54
				c-16.41,3.007-32.779,6.236-49.092,9.756c-19.462,4.223-38.864,8.764-58.17,13.811c-19.311,5.018-38.535,10.492-57.645,16.571
				c-9.559,3.02-19.083,6.22-28.575,9.589c-9.488,3.389-18.948,6.932-28.313,10.973c10.194,0.327,20.294,0.155,30.364-0.171
				c10.066-0.346,20.101-0.861,30.101-1.556c20.008-1.351,39.9-3.307,59.707-5.719c19.812-2.383,39.526-5.272,59.182-8.479
				c14.906-2.45,29.769-5.128,44.595-8.001c6.562,13.602,13.301,27.116,20.25,40.529c9.182,17.672,18.654,35.203,28.59,52.507
				c9.909,17.318,20.235,34.433,31.115,51.278c5.423,8.431,11.01,16.782,16.752,25.058c5.76,8.267,11.66,16.465,18.018,24.44
				C1633.991,1038.297,1631.176,1028.597,1628.219,1018.965z"/>
			<circle fill="#3A3A3C" cx="1531.008" cy="834.342" r="12.422"/>
		</g>
	</g>
</g>
<g id="_x33_">
	<path fill="#90B821" d="M1741.643,1667c-0.332-316.505-315.279-573-703.744-573c-388.464,0-703.412,256.495-703.744,573H1741.643z"
		/>
	<path fill="#216019" d="M2023,1656c-47.031-102.627-125.834-181.264-220.482-216.748
		c-68.407-122.641-184.789-203.372-316.865-203.372c-68.227,0-132.263,21.549-187.666,59.282
		c-34.146-4.911-69.286-7.478-105.162-7.478c-280.475,0-516.064,156.575-582.354,368.315H2023z"/>
	<path fill="#90B821" d="M1741.643,1667c-0.332-316.505-315.279-573-703.744-573c-388.464,0-703.412,256.495-703.744,573H1741.643z"
		/>
	<path fill="#216019" d="M2023,1656c-47.031-102.627-125.834-181.264-220.482-216.748
		c-68.407-122.641-184.789-203.372-316.865-203.372c-68.227,0-132.263,21.549-187.666,59.282
		c-34.146-4.911-69.286-7.478-105.162-7.478c-280.475,0-516.064,156.575-582.354,368.315H2023z"/>
</g>
<g id="_x32_">
	<path fill="#3A3A3C" d="M2146,1679H127c-6.6,0-12-5.4-12-12v-22c0-6.6,5.4-12,12-12h2019c6.6,0,12,5.4,12,12v22
		C2158,1673.6,2152.6,1679,2146,1679z"/>
	<g>
		<g>
			<g>
				<g>
					<path fill="#3B3F4A" d="M1040.038,1552.479c0-37.473-22.282-69.72-54.309-84.277v-8.276h-38.245
						c-51.116,0-92.554,41.438-92.554,92.554s41.438,92.554,92.554,92.554h38.245v-8.276
						C1017.755,1622.198,1040.038,1589.951,1040.038,1552.479z"/>
				</g>
				<g>
					<circle fill="#121B22" cx="985.729" cy="1552.479" r="92.554"/>
				</g>
				<g>
					<circle fill="#121B22" cx="985.729" cy="1552.479" r="53.289"/>
				</g>
				<g>
					<circle fill="#121B22" cx="985.729" cy="1552.479" r="44.875"/>
				</g>
				<g>
					<circle fill="#121B22" cx="985.729" cy="1552.479" r="31.731"/>
				</g>
			</g>
		</g>
		<g>
			<g>
				<g>
					<path fill="#3B3F4A" d="M428.18,1552.479c0-37.473-22.283-69.72-54.309-84.277v-8.276h-38.246
						c-51.116,0-92.554,41.438-92.554,92.554s41.438,92.554,92.554,92.554h38.246v-8.276
						C405.897,1622.198,428.18,1589.951,428.18,1552.479z"/>
				</g>
				<g>
					<circle fill="#121B22" cx="373.871" cy="1552.479" r="92.554"/>
				</g>
				<g>
					<circle fill="#121B22" cx="373.872" cy="1552.479" r="53.289"/>
				</g>
				<g>
					<circle fill="#121B22" cx="373.872" cy="1552.479" r="44.875"/>
				</g>
				<g>
					<circle fill="#121B22" cx="373.871" cy="1552.479" r="31.731"/>
				</g>
			</g>
		</g>
		<g>
			<rect x="460.237" y="1445.394" fill="#121B22" width="211.115" height="130.545"/>
			<rect x="1069.359" y="1445.394" fill="#121B22" width="211.115" height="130.545"/>
		</g>
		<path fill="#FF7261" d="M837.332,1079H576.776c-29.081,0-56.48,13.634-74.019,36.83l-117.996,156.068
			c-80.664,3.111-146.824,62.735-160.012,140.405c-42.111,12.741-72.775,51.835-72.775,98.104v53.16
			c0,7.394,5.993,13.387,13.387,13.387h304.815v-136.153h177.881l4.166-168.988l175.929-0.057L837.332,1079z"/>
		<g>
			<path fill="#131C23" d="M1229.225,1552.479c0-37.473-22.282-69.72-54.309-84.277v-8.276h-38.245
				c-51.116,0-92.554,41.438-92.554,92.554s41.438,92.554,92.554,92.554h38.245v-8.276
				C1206.942,1622.198,1229.225,1589.951,1229.225,1552.479z"/>
		</g>
		<g>
			<path fill="#131C23" d="M617.368,1552.479c0-37.473-22.283-69.72-54.309-84.277v-8.276h-38.246
				c-51.116,0-92.554,41.438-92.554,92.554s41.438,92.554,92.554,92.554h38.246v-8.276
				C595.085,1622.198,617.368,1589.951,617.368,1552.479z"/>
		</g>
		<path fill="#DA4547" d="M1297.567,1423.768v-77.05c0-6.888-0.948-13.552-2.688-19.888h0.017l-0.04-0.082
			c-2.349-8.514-6.158-16.416-11.147-23.428l-96.45-202.693c-6.453-13.232-19.887-21.627-34.608-21.627h-100.119h-20.227H914.433
			h-12.238h-30.26h-45.188c-29.081,0-56.48,13.633-74.018,36.83l-117.997,156.068l4.908-0.003
			c-80.693,3.083-146.884,62.718-160.076,140.408c-42.11,12.741-72.775,51.835-72.775,98.104v44.365
			c0,12.251,9.931,22.182,22.182,22.182h39.83c-2.025-7.82-3.106-16.022-3.106-24.477c0-53.773,43.592-97.365,97.365-97.365
			c53.773,0,97.365,43.592,97.365,97.365c0,8.454-1.081,16.656-3.106,24.477h67.672h307.314h48.354
			c-2.025-7.82-3.106-16.022-3.106-24.477c0-53.773,43.592-97.365,97.365-97.365c53.772,0,97.364,43.592,97.364,97.365
			c0,8.454-1.081,16.656-3.106,24.477h71.284v-73.431C1340.459,1470.207,1323.408,1440.885,1297.567,1423.768z"/>
		<path fill="#B53339" d="M685.924,1270.021v207.508c0,23.869,19.349,43.218,43.218,43.218h257.319
			c13.007,0,25.322-5.858,33.529-15.949l78.436-96.445c6.268-7.706,9.688-17.335,9.688-27.269v-111.063H685.924z"/>
		<path fill="#121B22" d="M1331.563,1590.217H161.307c-5.154,0-9.333-4.179-9.333-9.334v-19.223h1188.485v19.659
			C1340.459,1586.233,1336.477,1590.217,1331.563,1590.217z"/>
		<g>
			<circle fill="#3B3F4A" cx="563.059" cy="1552.479" r="92.554"/>
			<circle fill="#172838" cx="563.059" cy="1552.479" r="53.289"/>
			<circle fill="#C1C6CA" cx="563.059" cy="1552.479" r="44.875"/>
			<circle fill="#F7F3E8" cx="563.059" cy="1552.479" r="31.731"/>
		</g>
		<g>
			<circle fill="#3B3F4A" cx="1174.917" cy="1552.479" r="92.554"/>
			<circle fill="#172838" cx="1174.917" cy="1552.479" r="53.289"/>
			<circle fill="#C1C6CA" cx="1174.917" cy="1552.479" r="44.875"/>
			<circle fill="#F7F3E8" cx="1174.917" cy="1552.479" r="31.731"/>
		</g>
		<g>
			<circle fill="#3B3F4A" cx="1174.917" cy="1552.479" r="92.554"/>
			<circle fill="#172838" cx="1174.917" cy="1552.479" r="53.289"/>
			<circle fill="#C1C6CA" cx="1174.917" cy="1552.479" r="44.875"/>
			<circle fill="#F7F3E8" cx="1174.917" cy="1552.479" r="31.731"/>
		</g>
		<g>
			<path fill="#172838" d="M358.251,1565.997H225.349v-29.044c0-21.075,17.147-38.222,38.223-38.222h56.457
				c21.075,0,38.223,17.146,38.223,38.222V1565.997z M234.022,1557.323h115.555v-20.37c0-16.293-13.256-29.548-29.549-29.548
				h-56.457c-16.293,0-29.549,13.255-29.549,29.548V1557.323z"/>
		</g>
		<path fill="#E9711A" d="M498.453,1396.439c15.419,0,27.919-12.5,27.919-27.919v-5.586c0-10.222-8.287-18.509-18.509-18.509l0,0
			c-10.864,15.624-19.158,33.16-24.273,52.014H498.453z"/>
		<path fill="#F4E925" d="M461.963,1344.426c-19.941,0-36.107,16.166-36.107,36.107v5.473c0,5.763,4.671,10.434,10.434,10.434h47.3
			c5.115-18.854,13.409-36.39,24.273-52.014H461.963z"/>
		<path fill="#F4E925" d="M242.974,1396.439c15.419,0,27.919-12.5,27.919-27.919v-5.586c0-10.222-8.287-18.509-18.509-18.509l0,0
			c-10.864,15.624-19.158,33.16-24.273,52.014H242.974z"/>
		<path fill="#B8F1FC" d="M712.378,1110.649c3.785-5.018,0.205-12.201-6.08-12.201H580.056c-26.242,0-50.966,12.126-66.792,32.759
			l-101.726,132.622c-1.942,2.532-0.137,6.192,3.055,6.192h162.996c8.083,0,15.707-3.76,20.626-10.174l97.919-127.66
			L712.378,1110.649z"/>
		<path fill="#7AEAF9" d="M689.505,1285.016l1.998,3.437c4.73,8.135,13.43,13.139,22.839,13.139h385.609
			c5.318,0,10.512-1.604,14.903-4.604l72.521-49.541c11.008-7.521,14.688-22.063,8.583-33.915l-49.768-96.604
			c-4.519-8.771-13.547-14.293-23.413-14.319l-304.558-0.84c-8.419-0.023-16.345,3.968-21.34,10.745L691.076,1256.06
			C684.829,1264.536,684.211,1275.913,689.505,1285.016z"/>
		<g>
			<polygon fill="#B8F1FC" points="1011.32,1102.241 859.964,1101.824 916.639,1301.533 1007.881,1301.533 			"/>
			<path fill="#B8F1FC" d="M1195.958,1213.473l-49.768-96.604c-4.519-8.771-13.547-14.293-23.413-14.32l-67.393-0.186
				l74.472,184.317l57.519-39.293C1198.383,1239.867,1202.063,1225.324,1195.958,1213.473z"/>
		</g>
		<polygon fill="#19262F" points="994.648,1301.358 1039.018,1301.358 1019.401,1102.115 975.021,1101.999 		"/>
		<polygon fill="#DA4547" points="1002.741,1301.358 1038.354,1301.358 1022.609,1102.115 986.986,1101.999 		"/>
		<path fill="#7AEAF9" d="M643.236,1098.448h-63.181c-26.242,0-50.966,12.126-66.792,32.759l-101.726,132.622
			c-1.942,2.533-0.137,6.192,3.055,6.192H517.6L643.236,1098.448z"/>
		<path fill="#121B22" d="M1073.283,1355.111h-45.838c-2.762,0-5-2.238-5-5v-11.395c0-2.761,2.238-5,5-5h45.838c2.761,0,5,2.239,5,5
			v11.395C1078.283,1352.873,1076.044,1355.111,1073.283,1355.111z"/>
		<path fill="#121B22" d="M1249.354,1412.12h48.213v-71.519h-48.213c-7.456,0-13.5,6.044-13.5,13.5v44.519
			C1235.854,1406.076,1241.898,1412.12,1249.354,1412.12z"/>
		<path fill="#C92017" d="M1253.769,1405.619h43.799v-29.067h-43.799c-5.247,0-9.5,4.254-9.5,9.5v10.067
			C1244.269,1401.365,1248.521,1405.619,1253.769,1405.619z"/>
		<path fill="#E87019" d="M1269.831,1375.277h27.736v-29.066h-27.736c-5.246,0-9.5,4.253-9.5,9.5v10.066
			C1260.331,1371.024,1264.585,1375.277,1269.831,1375.277z"/>
		<path fill="#121B22" d="M370.635,1370.433h-57.919c-1.749,0-3.167-1.417-3.167-3.166v-3.356c0-1.748,1.417-3.166,3.167-3.166
			h57.919c1.749,0,3.167,1.418,3.167,3.166v3.356C373.802,1369.016,372.384,1370.433,370.635,1370.433z"/>
		<path fill="#172838" d="M406.098,1396.439H269.958c-2.864,0-5.185,2.322-5.185,5.186v5.494c0,2.863,2.321,5.185,5.185,5.185
			h136.139c2.863,0,5.185-2.321,5.185-5.185v-5.494C411.283,1398.762,408.961,1396.439,406.098,1396.439z"/>
		<circle fill="#121B22" cx="1192.249" cy="1355.129" r="35.957"/>
		<circle fill="#F7F3E8" cx="1196.328" cy="1355.129" r="25.425"/>
	</g>
</g>
<g id="_x31_">
	<g>
		<g>
			<path fill="#23A1D4" d="M2031.898,1623.909h-114.747c-0.529,0-0.959-0.429-0.959-0.958v-536.612c0-0.529,0.43-0.958,0.959-0.958
				h91.385c13.432,0,24.32,10.889,24.32,24.32v513.25C2032.856,1623.48,2032.428,1623.909,2031.898,1623.909z"/>
			<path fill="#29404E" d="M2021.84,1608.313h-114.422c-0.619,0-1.121-0.502-1.121-1.121v-509.789c0-0.619,0.502-1.121,1.121-1.121
				h91.061c13.521,0,24.482,10.962,24.482,24.483v486.427C2022.961,1607.812,2022.459,1608.313,2021.84,1608.313z"/>
			<path fill="#23A1D4" d="M2002.621,1096.282h-37.992v53.129h58.332v-32.79C2022.961,1105.389,2013.854,1096.282,2002.621,1096.282
				z"/>
			<path fill="#23A1D4" d="M1848.721,1623.909h136.743v-516.778c0-12.012-9.737-21.75-21.75-21.75h-93.243
				c-12.012,0-21.75,9.738-21.75,21.75V1623.909z"/>
			<path fill="#29404E" d="M1863.114,1623.909h107.955v-493.382c0-9.28-7.522-16.803-16.802-16.803h-74.351
				c-9.279,0-16.803,7.522-16.803,16.803V1623.909z"/>
			<path fill="#C8D0E7" d="M1887.559,1221.585h59.068c4.556,0,8.25-3.694,8.25-8.25v-71.509c0-4.557-3.694-8.25-8.25-8.25h-59.068
				c-4.557,0-8.25,3.693-8.25,8.25v71.509C1879.309,1217.891,1883.002,1221.585,1887.559,1221.585z"/>
			<rect x="1893.702" y="1146.148" fill="#A2A590" width="46.78" height="29.336"/>
			<g>
				<ellipse fill="#B10D0B" cx="1927.888" cy="1188.058" rx="3.599" ry="4.19"/>
				<ellipse fill="#4CB720" cx="1906.297" cy="1188.058" rx="3.599" ry="4.19"/>
			</g>
			<g>
				<g>
					<g>
						<g>
							<path fill="#91B922" d="M1905.219,1512.757h3.249c0.445,0,0.807-0.36,0.807-0.806v-29.606c0-0.445-0.361-0.806-0.807-0.806
								h-3.249c-0.445,0-0.807,0.36-0.807,0.806v29.606C1904.412,1512.396,1904.773,1512.757,1905.219,1512.757z"/>
						</g>
						<g>
							<path fill="#91B922" d="M1923.917,1512.757h3.25c0.445,0,0.806-0.36,0.806-0.806v-29.606c0-0.445-0.36-0.806-0.806-0.806
								h-3.25c-0.444,0-0.806,0.36-0.806,0.806v29.606C1923.111,1512.396,1923.473,1512.757,1923.917,1512.757z"/>
						</g>
						<g>
							<path fill="#91B922" d="M1903.211,1545.353h25.964c3.557,0,6.439-2.884,6.439-6.44v-39.539h-38.844v39.539
								C1896.771,1542.469,1899.654,1545.353,1903.211,1545.353z"/>
						</g>
					</g>
				</g>
				<g>
					<g>
						<path fill="#E9E6ED" d="M1912.351,1507.53c0.883,1.97,1.901,3.797,2.951,5.593c0.527,0.895,1.07,1.773,1.621,2.644
							c0.557,0.864,1.116,1.725,1.693,2.567l1.405-2.985c-0.61-0.173-1.225-0.32-1.837-0.476c-0.612-0.16-1.229-0.291-1.844-0.434
							c-0.614-0.146-1.232-0.268-1.85-0.395c-0.616-0.132-1.234-0.248-1.854-0.358l-3.767-0.669l1.998,3.736
							c0.363,0.679,0.733,1.352,1.115,2.017c0.373,0.67,0.759,1.332,1.149,1.99c0.774,1.321,1.585,2.616,2.413,3.898
							c0.835,1.278,1.697,2.536,2.598,3.767c0.904,1.228,1.834,2.438,2.86,3.578c-0.416-1.58-0.929-3.089-1.467-4.58
							c-0.542-1.488-1.121-2.951-1.729-4.392c-0.614-1.437-1.246-2.86-1.913-4.259c-0.33-0.702-0.666-1.399-1.014-2.089
							c-0.34-0.694-0.69-1.382-1.049-2.063l-1.769,3.067c0.616,0.13,1.234,0.254,1.854,0.361c0.619,0.112,1.237,0.231,1.859,0.325
							c0.621,0.098,1.241,0.206,1.865,0.286c0.623,0.085,1.244,0.178,1.87,0.244l4.413,0.471l-3.008-3.456
							c-0.658-0.757-1.335-1.495-2.015-2.23c-0.685-0.729-1.379-1.45-2.087-2.155
							C1915.394,1510.131,1913.939,1508.76,1912.351,1507.53z"/>
					</g>
				</g>
			</g>
			<g>
				<path fill="#2A3235" d="M1936.369,1417.778c11.683,0,26.077-10.115,43.705-30.644c23.05-26.846,28.314-63.408,14.44-100.312
					c-15.237-40.527-50.084-72.53-77.626-71.173c-46.967,2.188-46.54,66.896-46.312,101.659c0.018,2.441,0.031,4.769,0.031,6.952
					c0,21.294,17.191,39.117,34.229,47.335c2.39,1.154,4.779,2.135,7.154,2.942l0.011,8.777c0.06,1.068,1.623,26.229,16.792,32.889
					C1931.183,1417.252,1933.705,1417.778,1936.369,1417.778z M1918.562,1227.49c23.174,0,53.385,28.925,66.608,64.1
					c7.109,18.912,14.966,55.38-12.31,87.143c-23.938,27.881-35.632,28.479-40.468,26.356c-8.513-3.738-10.064-20.639-10.199-22.393
					v-5.712c14.248,1.965,27.335-2.474,36.29-12.899c17.787-20.717,17.204-60.528,7.621-87.471
					c-6.203-17.44-15.542-27.443-25.622-27.443v11.881c5.581,0,11.787,7.705,16.198,20.109c8.435,23.713,8.716,58.071-5.411,74.521
					c-7.813,9.1-18.757,11.009-29.076,9.28v-28.129h-10.202v25.225c-1.11-0.447-2.198-0.929-3.252-1.437
					c-16.444-7.934-27.929-22.886-27.929-36.36c0-2.213-0.016-4.568-0.032-7.042c-0.295-44.514,2.282-88.104,36.518-89.701
					C1917.714,1227.5,1918.138,1227.49,1918.562,1227.49z"/>
			</g>
			<ellipse fill="#E9E6ED" cx="1917.093" cy="1276.066" rx="37.784" ry="44.004"/>
			<path fill="#B0C5D6" d="M1917.092,1255.111c9.938,0,17.993,9.382,17.993,20.955v38.703c-5.35,3.38-11.479,5.301-17.993,5.301
				c-6.514,0-12.643-1.921-17.992-5.301v-38.703C1899.1,1264.493,1907.155,1255.111,1917.092,1255.111z"/>
			<path fill="#515E66" d="M1913.33,1353.598h7.524c1.897,0,3.435-1.538,3.435-3.435v-76.948c0-1.897-1.537-3.436-3.435-3.436
				h-7.524c-1.896,0-3.435,1.538-3.435,3.436v76.948C1909.896,1352.06,1911.434,1353.598,1913.33,1353.598z"/>
			<path fill="#29404E" d="M2037.972,1644.983h-205.773c-2.777,0-5.028-2.251-5.028-5.028v-11.018c0-2.777,2.251-5.028,5.028-5.028
				h205.773c2.776,0,5.028,2.251,5.028,5.028v11.018C2043,1642.732,2040.749,1644.983,2037.972,1644.983z"/>
		</g>
		<g>
			<g>
				<path fill="#23A1D4" d="M1707.874,1623.909h-114.747c-0.529,0-0.959-0.429-0.959-0.958v-536.612c0-0.529,0.43-0.958,0.959-0.958
					h91.385c13.432,0,24.32,10.889,24.32,24.32v513.25C1708.832,1623.48,1708.403,1623.909,1707.874,1623.909z"/>
				<path fill="#29404E" d="M1697.815,1608.313h-114.422c-0.619,0-1.121-0.502-1.121-1.121v-509.789
					c0-0.619,0.502-1.121,1.121-1.121h91.061c13.521,0,24.482,10.962,24.482,24.483v486.427
					C1698.937,1607.812,1698.435,1608.313,1697.815,1608.313z"/>
				<path fill="#23A1D4" d="M1524.696,1623.909h136.743v-516.778c0-12.012-9.738-21.75-21.75-21.75h-93.243
					c-12.012,0-21.75,9.738-21.75,21.75V1623.909z"/>
				<path fill="#29404E" d="M1539.091,1623.909h107.954v-493.382c0-9.28-7.522-16.803-16.802-16.803h-74.351
					c-9.279,0-16.802,7.522-16.802,16.803V1623.909z"/>
				<path fill="#C8D0E7" d="M1563.533,1221.585h59.069c4.556,0,8.25-3.694,8.25-8.25v-71.509c0-4.557-3.694-8.25-8.25-8.25h-59.069
					c-4.556,0-8.25,3.693-8.25,8.25v71.509C1555.283,1217.891,1558.978,1221.585,1563.533,1221.585z"/>
				<g>
					<g>
						<g>
							<g>
								<path fill="#91B922" d="M1581.194,1512.757h3.249c0.445,0,0.807-0.36,0.807-0.806v-29.606c0-0.445-0.361-0.806-0.807-0.806
									h-3.249c-0.445,0-0.807,0.36-0.807,0.806v29.606C1580.388,1512.396,1580.749,1512.757,1581.194,1512.757z"/>
							</g>
							<g>
								<path fill="#91B922" d="M1599.893,1512.757h3.25c0.445,0,0.807-0.36,0.807-0.806v-29.606c0-0.445-0.361-0.806-0.807-0.806
									h-3.25c-0.444,0-0.806,0.36-0.806,0.806v29.606C1599.087,1512.396,1599.448,1512.757,1599.893,1512.757z"/>
							</g>
							<g>
								<path fill="#91B922" d="M1579.187,1545.353h25.964c3.557,0,6.439-2.884,6.439-6.44v-39.539h-38.844v39.539
									C1572.746,1542.469,1575.63,1545.353,1579.187,1545.353z"/>
							</g>
						</g>
					</g>
					<g>
						<g>
							<path fill="#E9E6ED" d="M1588.326,1507.53c0.884,1.97,1.902,3.797,2.951,5.593c0.527,0.895,1.07,1.773,1.621,2.644
								c0.557,0.864,1.116,1.725,1.693,2.567l1.406-2.985c-0.611-0.173-1.225-0.32-1.838-0.476c-0.612-0.16-1.229-0.291-1.844-0.434
								c-0.614-0.146-1.232-0.268-1.849-0.395c-0.616-0.132-1.235-0.248-1.854-0.358l-3.768-0.669l1.998,3.736
								c0.363,0.679,0.734,1.352,1.115,2.017c0.373,0.67,0.759,1.332,1.149,1.99c0.774,1.321,1.585,2.616,2.413,3.898
								c0.835,1.278,1.698,2.536,2.598,3.767c0.904,1.228,1.834,2.438,2.86,3.578c-0.416-1.58-0.929-3.089-1.467-4.58
								c-0.542-1.488-1.121-2.951-1.729-4.392c-0.614-1.437-1.245-2.86-1.913-4.259c-0.33-0.702-0.666-1.399-1.014-2.089
								c-0.34-0.694-0.69-1.382-1.049-2.063l-1.769,3.067c0.616,0.13,1.234,0.254,1.854,0.361c0.618,0.112,1.236,0.231,1.858,0.325
								c0.621,0.098,1.241,0.206,1.865,0.286c0.623,0.085,1.245,0.178,1.87,0.244l4.413,0.471l-3.007-3.456
								c-0.659-0.757-1.336-1.495-2.016-2.23c-0.685-0.729-1.379-1.45-2.086-2.155
								C1591.369,1510.131,1589.916,1508.76,1588.326,1507.53z"/>
						</g>
					</g>
				</g>
				<ellipse fill="#E9E6ED" cx="1593.068" cy="1276.066" rx="37.785" ry="44.004"/>
				<path fill="#B0C5D6" d="M1593.068,1255.111c9.937,0,17.992,9.382,17.992,20.955v38.703c-5.35,3.38-11.479,5.301-17.992,5.301
					c-6.515,0-12.644-1.921-17.993-5.301v-38.703C1575.075,1264.493,1583.131,1255.111,1593.068,1255.111z"/>
				<path fill="#29404E" d="M1713.947,1644.983h-205.773c-2.777,0-5.028-2.251-5.028-5.028v-11.018c0-2.777,2.251-5.028,5.028-5.028
					h205.773c2.777,0,5.028,2.251,5.028,5.028v11.018C1718.976,1642.732,1716.725,1644.983,1713.947,1644.983z"/>
				<path fill="#515E66" d="M1589.306,1353.598h7.524c1.897,0,3.436-1.538,3.436-3.435v-76.948c0-1.897-1.538-3.436-3.436-3.436
					h-7.524c-1.897,0-3.435,1.538-3.435,3.436v76.948C1585.871,1352.06,1587.408,1353.598,1589.306,1353.598z"/>
				<g>
					<path fill="#2A3235" d="M1370.877,1629.981c-9.132,0.001-27.214-2.243-44.912-17.447
						c-30.5-26.202-45.517-77.545-44.634-152.601c0.349-29.639-8.448-53.747-26.146-71.653
						c-22.274-22.538-50.91-27.611-59.186-27.611c-3.131,0-5.669-2.538-5.669-5.669s2.538-5.669,5.669-5.669
						c14.726,0,44.787,8.25,67.251,30.979c19.906,20.143,29.804,46.977,29.418,79.757c-1.049,89.118,21.546,127.425,40.685,143.867
						c20.606,17.703,41.515,14.505,41.727,14.473l0.457-0.075H1376c45.034,0,52.83-28.997,61.857-62.572
						c8.749-32.543,18.665-69.428,70.143-69.428c34.536,0,59.185-7.651,71.28-22.126c10.519-12.589,8.233-26.063,8.209-26.197
						l-0.09-0.5v-91.297c0-3.131,2.538-5.669,5.669-5.669s5.669,2.538,5.669,5.669v90.367c0.456,3.334,1.91,19.739-10.756,34.896
						c-14.524,17.382-41.434,26.194-79.981,26.194c-42.784,0-50.389,28.284-59.193,61.033
						c-8.921,33.182-19.029,70.778-72.404,70.967C1375.515,1629.784,1373.59,1629.981,1370.877,1629.981z"/>
				</g>
			</g>
			<path fill="#23A1D4" d="M1682.109,1096.282h-41.505v53.129h58.332v-36.302
				C1698.937,1103.816,1691.402,1096.282,1682.109,1096.282z"/>
			<rect x="1569.678" y="1146.148" fill="#A2A590" width="46.78" height="29.336"/>
			<g>
				<ellipse fill="#B10D0B" cx="1603.864" cy="1188.058" rx="3.598" ry="4.19"/>
				<ellipse fill="#4CB720" cx="1582.272" cy="1188.058" rx="3.599" ry="4.19"/>
			</g>
		</g>
	</g>
	<path fill="#91B922" d="M1200.5,1364h-10c-4.675,0-8.5-3.825-8.5-8.5v-2c0-4.675,3.825-8.5,8.5-8.5h10c4.675,0,8.5,3.825,8.5,8.5v2
		C1209,1360.175,1205.175,1364,1200.5,1364z"/>
</g>
</svg>
