<svg width="419" height="109" viewBox="0 0 419 109" fill="none" xmlns="http://www.w3.org/2000/svg">
<path d="M106.555 30.4141C106.85 30.8231 107.173 31.2121 107.52 31.5786L113.833 38.9182V39.0102H109.757L124.835 47.7135L117.449 39.1174C118.844 39.1174 122.996 40.8336 124.421 40.8029C123.885 40.4965 120.606 38.4585 120.131 38.198L110.937 32.9423L106.723 30.552C106.723 30.552 106.647 30.46 106.57 30.552L106.555 30.4141Z" fill="url(#paint0_linear_400_20)"/>
<path d="M102.081 23.6414C81.38 -4.62917 37.8477 0.33542 37.8477 0.33542L72.6154 26.66L62.0272 28.7592L80.6139 39.3932L93.5771 38.0295C108.011 33.5552 102.081 23.6414 102.081 23.6414Z" fill="#4CB066"/>
<path opacity="0.9" d="M70.3931 26.0778L42.9803 5.31543C28.8526 7.82837 14.541 19.6116 14.541 19.6116L43.6546 28.2537L31.764 30.0158L49.7991 40.328L74.4077 36.7118L59.4525 28.1311L70.3931 26.0778Z" fill="#4CB066"/>
<path opacity="0.8" d="M17.9585 60.6159L27.4893 55.8965C36.0548 42.106 45.3558 38.6737 45.3558 38.6737L30.3087 29.6792L41.3412 28.1469L17.2842 21.4355C0.735498 38.1987 0 63.3587 0 63.3587L20.0424 52.311L17.9585 60.6159Z" fill="#4CB066"/>
<path opacity="0.7" d="M29.2659 82.6959C22.1407 74.3296 23.1367 60.3093 23.1367 59.1754L17.2067 61.5811L18.6011 54.3027L2.52734 63.6496C3.47793 71.0756 5.90498 78.2363 9.66549 84.7099C13.426 91.1835 18.444 96.8392 24.4238 101.344V88.4879L29.2352 91.5525L29.2659 82.6959Z" fill="#4CB066"/>
<path opacity="0.6" d="M64.9385 68.8746C51.3778 59.2825 44.4518 74.7739 44.4518 74.7739C56.7101 68.0931 61.4755 74.4368 61.4755 74.4368C57.9819 74.0384 54.6569 77.8844 54.6109 77.9457C54.5649 78.007 55.1779 77.486 60.6481 78.5739C66.3636 79.7078 70.654 98.2944 55.515 100.026C40.3759 101.757 30.5539 88.7329 30.5539 88.7329V93.7588L25.957 91.016L26.1716 100.348C26.1716 100.348 34.4153 110.629 50.6882 108.346C66.9612 106.063 70.7153 96.2871 70.7153 96.2871C70.7153 96.2871 78.2848 78.3594 64.9385 68.8746Z" fill="#4CB066"/>
<path d="M93.3787 28.269C92.6121 28.2554 91.8576 28.0758 91.1671 27.7425C90.4767 27.4092 89.8668 26.9301 89.3794 26.3383C87.6903 24.2203 86.5295 21.7307 85.993 19.0753L85.6406 17.7422L98.3586 25.9246L97.8683 26.3842C96.6305 27.5061 95.0464 28.1711 93.3787 28.269Z" fill="#4CB066"/>
<path d="M92.3516 21.94C93.0937 21.5879 93.7401 21.0623 94.2363 20.4077L93.7153 20.0859C93.501 20.8491 93.0162 21.5081 92.3516 21.94Z" fill="white"/>
<path d="M95.2463 21.0523C94.2501 22.2845 92.8334 23.1048 91.2687 23.3553C89.7041 23.6058 88.1021 23.2689 86.7709 22.4094C85.4397 21.5498 84.4734 20.2284 84.058 18.6993C83.6425 17.1701 83.8072 15.5414 84.5203 14.1264L74.4531 7.66016C82.5589 38.9953 98.9698 23.3967 98.9698 23.3967L95.2463 21.0523Z" fill="white"/>
<path d="M87.388 19.2438C87.3852 18.7694 87.4882 18.3004 87.6897 17.871C87.8912 17.4416 88.186 17.0625 88.5526 16.7615L85.488 14.7695C85.0813 15.5279 84.8706 16.376 84.8751 17.2365C84.8751 18.6223 85.4255 19.9513 86.4054 20.9312C87.3853 21.9111 88.7144 22.4616 90.1001 22.4616H90.3147C89.5114 22.3922 88.7638 22.0223 88.2213 21.4258C87.6787 20.8293 87.3812 20.0501 87.388 19.2438Z" fill="white"/>
<path d="M90.0828 23.6568C91.087 23.6556 92.0771 23.4194 92.9738 22.9671C93.8704 22.5148 94.6488 21.8589 95.2466 21.0519L94.2353 20.4083C93.7391 21.0629 93.0926 21.5885 92.3505 21.9406C91.8346 22.2874 91.2254 22.4691 90.6037 22.4616H90.0828C88.697 22.4616 87.3679 21.9111 86.388 20.9312C85.4081 19.9513 84.8576 18.6223 84.8576 17.2365C84.8532 16.376 85.0639 15.5279 85.4705 14.7695L84.4592 14.126C83.9224 15.1046 83.6493 16.2059 83.6668 17.322C83.6843 18.438 83.9917 19.5303 84.5589 20.4916C85.1261 21.4529 85.9336 22.2501 86.902 22.805C87.8705 23.36 88.9666 23.6535 90.0828 23.6568Z" fill="#4CB066"/>
<path d="M93.716 20.1327L88.5521 16.8076C88.0761 17.2174 87.7304 17.7575 87.5577 18.3614C87.3849 18.9653 87.3927 19.6066 87.5801 20.2061C87.7674 20.8056 88.1261 21.3372 88.612 21.7353C89.0979 22.1334 89.6896 22.3806 90.3143 22.4464C91.0008 22.4148 91.6736 22.2427 92.2909 21.9408C92.9698 21.5311 93.4763 20.8884 93.716 20.1327Z" fill="#4CB066"/>
<path d="M90.6048 22.4614C91.2265 22.4689 91.8357 22.2872 92.3516 21.9404C91.7342 22.2424 91.0615 22.4144 90.375 22.4461L90.6048 22.4614Z" fill="#4CB066"/>
<path d="M117.986 67.4187C120.652 70.0083 121.97 73.839 121.97 78.9262V98.8458H111.887V80.4584C112.046 78.2615 111.398 76.082 110.064 74.3293C109.403 73.6142 108.591 73.0549 107.687 72.6919C106.784 72.3288 105.811 72.1711 104.839 72.2301C103.708 72.1682 102.578 72.3465 101.521 72.7532C100.465 73.16 99.5067 73.7859 98.7096 74.5898C97.049 76.5517 96.2335 79.0917 96.4418 81.6536V98.8458H86.3594V50.8701H96.4418V67.6333C97.8191 66.2709 99.4767 65.2252 101.299 64.5687C103.285 63.8348 105.388 63.4713 107.505 63.4961C109.426 63.4115 111.344 63.7153 113.145 64.3893C114.946 65.0633 116.592 66.0937 117.986 67.4187Z" fill="url(#paint1_linear_400_20)"/>
<path d="M157.536 67.3879C160.427 69.9417 161.872 73.8132 161.872 79.0026V98.9222H152.433V94.5092C150.533 97.7577 146.994 99.3666 141.83 99.3666C139.439 99.4297 137.064 98.9641 134.873 98.0028C133.047 97.2169 131.487 95.9182 130.384 94.2641C129.347 92.642 128.814 90.7492 128.851 88.8245C128.79 87.3456 129.092 85.8742 129.731 84.5388C130.369 83.2034 131.324 82.0444 132.514 81.1631C134.935 79.2937 138.684 78.359 143.761 78.359H151.79C151.847 77.4159 151.697 76.4717 151.35 75.5928C151.004 74.7139 150.468 73.9216 149.783 73.2718C148.06 71.9639 145.918 71.3316 143.761 71.4944C141.907 71.4938 140.066 71.7886 138.306 72.3678C136.647 72.8779 135.09 73.6767 133.709 74.7275L130.154 67.7403C132.235 66.3371 134.541 65.3006 136.973 64.6758C139.637 63.9384 142.39 63.5672 145.155 63.5725C150.528 63.5521 154.655 64.8239 157.536 67.3879ZM148.94 91.3834C150.276 90.5816 151.285 89.3333 151.79 87.8591V84.3043H144.864C140.727 84.3043 138.658 85.6527 138.658 88.3801C138.64 88.9778 138.771 89.5706 139.038 90.1054C139.306 90.6402 139.702 91.1004 140.19 91.4447C141.421 92.2613 142.883 92.6589 144.358 92.5786C145.966 92.6072 147.551 92.1938 148.94 91.3834Z" fill="url(#paint2_linear_400_20)"/>
<path d="M225.921 67.3878C228.495 69.9467 229.752 73.7621 229.752 78.9259V98.8455H219.654V80.4582C219.815 78.2774 219.208 76.109 217.938 74.329C217.344 73.6327 216.6 73.0814 215.76 72.7176C214.921 72.3537 214.009 72.1868 213.096 72.2298C212.046 72.179 210.999 72.3569 210.025 72.7511C209.051 73.1453 208.175 73.7465 207.457 74.5129C205.925 76.4757 205.187 78.9421 205.388 81.4235V98.8455H195.306V80.4582C195.306 74.9726 193.115 72.2451 188.717 72.2451C187.68 72.1994 186.645 72.3799 185.684 72.7742C184.724 73.1684 183.861 73.7669 183.155 74.5282C181.615 76.4812 180.87 78.9444 181.071 81.4235V98.8455H170.988V64.0628H180.626V68.062C181.929 66.5912 183.555 65.4425 185.377 64.7063C187.323 63.9185 189.406 63.5228 191.506 63.5418C193.816 63.5342 196.096 64.0585 198.171 65.0741C200.123 65.9729 201.791 67.3875 202.998 69.1653C204.437 67.3509 206.292 65.9106 208.407 64.9668C210.646 63.9404 213.084 63.4173 215.547 63.4345C217.454 63.3535 219.358 63.6623 221.142 64.342C222.925 65.0217 224.552 66.0581 225.921 67.3878Z" fill="url(#paint3_linear_400_20)"/>
<path d="M273.099 84.3048H246.79C247.204 86.3768 248.407 88.2067 250.146 89.4073C252.089 90.7107 254.396 91.3651 256.734 91.2767C258.379 91.3083 260.015 91.0382 261.561 90.4799C263.022 89.8977 264.351 89.0274 265.469 87.921L270.847 93.7437C267.568 97.4926 262.782 99.3671 256.489 99.3671C252.883 99.4388 249.311 98.651 246.07 97.0687C243.18 95.6543 240.755 93.4425 239.082 90.6944C237.432 87.9151 236.583 84.7329 236.631 81.5007C236.59 78.2735 237.427 75.0958 239.052 72.3071C240.642 69.5997 242.949 67.3834 245.717 65.9021C248.609 64.4106 251.813 63.6235 255.067 63.6048C258.321 63.5862 261.533 64.3366 264.442 65.7949C267.167 67.2342 269.422 69.4252 270.939 72.1079C272.558 75.0189 273.372 78.3085 273.299 81.6386C273.299 81.7153 273.237 82.6193 273.099 84.3048ZM249.502 73.1192C247.911 74.4384 246.876 76.3101 246.606 78.3596H263.752C263.487 76.3105 262.472 74.4325 260.902 73.0885C259.308 71.7539 257.28 71.0506 255.202 71.1119C253.122 71.0704 251.097 71.7835 249.502 73.1192Z" fill="url(#paint4_linear_400_20)"/>
<path d="M280.027 50.8701H290.11V98.8458H280.027V50.8701Z" fill="url(#paint5_linear_400_20)"/>
<path d="M333.381 84.3049H307.056C307.476 86.3744 308.678 88.2022 310.412 89.4073C312.383 90.7267 314.724 91.3817 317.093 91.2767C318.732 91.3085 320.363 91.0385 321.904 90.4799C323.372 89.9018 324.706 89.0312 325.827 87.921L331.19 93.7437C327.911 97.4927 323.125 99.3672 316.832 99.3672C313.231 99.4405 309.664 98.6525 306.428 97.0687C303.538 95.6544 301.114 93.4425 299.441 90.6945C297.846 87.8928 297.008 84.7245 297.008 81.5008C297.008 78.2771 297.846 75.1088 299.441 72.3071C301.018 69.5948 303.321 67.3766 306.091 65.9022C308.97 64.4112 312.16 63.619 315.403 63.5897C318.645 63.5604 321.849 64.2949 324.754 65.7336C327.483 67.168 329.739 69.3603 331.251 72.0466C332.87 74.9576 333.685 78.2473 333.611 81.5774C333.565 81.7153 333.504 82.6193 333.381 84.3049ZM309.769 73.1192C308.199 74.4477 307.187 76.3186 306.934 78.3596H324.065C323.807 76.3082 322.79 74.4278 321.215 73.0886C319.625 71.7854 317.615 71.1046 315.561 71.1732C313.458 71.0992 311.4 71.7906 309.769 73.1192Z" fill="url(#paint6_linear_400_20)"/>
<path d="M346.988 97.0684C344.165 95.6218 341.802 93.4137 340.169 90.6942C338.553 87.8801 337.703 84.6918 337.703 81.4469C337.703 78.2019 338.553 75.0136 340.169 72.1996C341.808 69.4882 344.169 67.2864 346.988 65.8406C350.038 64.2755 353.428 63.4861 356.856 63.5422C360.27 63.4829 363.645 64.2727 366.678 65.8406C369.489 67.3 371.839 69.5123 373.466 72.2302C375.082 75.0443 375.932 78.2326 375.932 81.4775C375.932 84.7225 375.082 87.9108 373.466 90.7248C371.84 93.4391 369.489 95.6465 366.678 97.0991C363.645 98.667 360.27 99.4568 356.856 99.3975C353.425 99.4441 350.036 98.6442 346.988 97.0684ZM363.215 88.4724C364.83 86.4902 365.712 84.0115 365.712 81.4545C365.712 78.8975 364.83 76.4188 363.215 74.4367C362.41 73.584 361.434 72.9102 360.352 72.4588C359.27 72.0074 358.105 71.7886 356.932 71.8165C355.741 71.7808 354.555 71.9956 353.452 72.447C352.349 72.8983 351.352 73.5762 350.527 74.4367C348.893 76.4101 347.998 78.8921 347.998 81.4545C347.998 84.0169 348.893 86.499 350.527 88.4724C351.352 89.3329 352.349 90.0107 353.452 90.4621C354.555 90.9134 355.741 91.1282 356.932 91.0926C358.105 91.1205 359.27 90.9017 360.352 90.4503C361.434 89.9989 362.41 89.325 363.215 88.4724Z" fill="url(#paint7_linear_400_20)"/>
<path d="M414.24 67.419C416.896 70.0034 418.224 73.8393 418.224 78.9264V98.8461H408.141V80.4587C408.3 78.2617 407.652 76.0823 406.318 74.3296C405.657 73.6145 404.845 73.0552 403.941 72.6921C403.038 72.3291 402.065 72.1714 401.093 72.2304C399.962 72.1665 398.831 72.3439 397.774 72.7507C396.717 73.1576 395.759 73.7846 394.964 74.5901C393.315 76.5403 392.5 79.0615 392.696 81.6079V98.8461H382.613V64.0633H392.251V68.1392C393.627 66.6368 395.331 65.4727 397.231 64.7375C399.31 63.9216 401.526 63.5158 403.759 63.5423C405.677 63.4516 407.593 63.7482 409.394 64.4142C411.194 65.0802 412.843 66.1022 414.24 67.419Z" fill="url(#paint8_linear_400_20)"/>
<defs>
<linearGradient id="paint0_linear_400_20" x1="91.9213" y1="39.5311" x2="455.641" y2="32.0535" gradientUnits="userSpaceOnUse">
<stop stop-color="#F3A319"/>
<stop offset="1" stop-color="#EBD74D"/>
</linearGradient>
<linearGradient id="paint1_linear_400_20" x1="103.659" y1="63.6187" x2="104.41" y2="99.4587" gradientUnits="userSpaceOnUse">
<stop stop-color="#4CB066" stop-opacity="0.6"/>
<stop offset="1" stop-color="#4CB066"/>
</linearGradient>
<linearGradient id="paint2_linear_400_20" x1="144.91" y1="62.7604" x2="145.661" y2="98.6004" gradientUnits="userSpaceOnUse">
<stop stop-color="#4CB066" stop-opacity="0.6"/>
<stop offset="1" stop-color="#4CB066"/>
</linearGradient>
<linearGradient id="paint3_linear_400_20" x1="199.811" y1="61.6111" x2="200.562" y2="97.4665" gradientUnits="userSpaceOnUse">
<stop stop-color="#4CB066" stop-opacity="0.6"/>
<stop offset="1" stop-color="#4CB066"/>
</linearGradient>
<linearGradient id="paint4_linear_400_20" x1="254.528" y1="60.4779" x2="255.279" y2="96.3179" gradientUnits="userSpaceOnUse">
<stop stop-color="#4CB066" stop-opacity="0.6"/>
<stop offset="1" stop-color="#4CB066"/>
</linearGradient>
<linearGradient id="paint5_linear_400_20" x1="284.762" y1="59.8493" x2="285.498" y2="95.6893" gradientUnits="userSpaceOnUse">
<stop stop-color="#4CB066" stop-opacity="0.6"/>
<stop offset="0.08" stop-color="#4CB066" stop-opacity="0.63"/>
<stop offset="1" stop-color="#4CB066"/>
</linearGradient>
<linearGradient id="paint6_linear_400_20" x1="314.779" y1="59.2214" x2="315.515" y2="95.0615" gradientUnits="userSpaceOnUse">
<stop stop-color="#4CB066" stop-opacity="0.6"/>
<stop offset="1" stop-color="#4CB066"/>
</linearGradient>
<linearGradient id="paint7_linear_400_20" x1="356.335" y1="58.3477" x2="357.086" y2="94.1724" gradientUnits="userSpaceOnUse">
<stop stop-color="#4CB066" stop-opacity="0.6"/>
<stop offset="1" stop-color="#4CB066"/>
</linearGradient>
<linearGradient id="paint8_linear_400_20" x1="399.79" y1="57.4439" x2="400.541" y2="93.2992" gradientUnits="userSpaceOnUse">
<stop stop-color="#4CB066" stop-opacity="0.6"/>
<stop offset="1" stop-color="#4CB066"/>
</linearGradient>
</defs>
</svg>
