<svg width="419" height="110" viewBox="0 0 419 110" fill="none" xmlns="http://www.w3.org/2000/svg">
<path d="M106.555 31.0908C106.85 31.4999 107.173 31.8889 107.52 32.2554L113.833 39.595V39.6869H109.757L124.835 48.3903L117.449 39.7942C118.844 39.7942 122.996 41.5103 124.421 41.4797C123.885 41.1732 120.606 39.1353 120.131 38.8748L110.937 33.6191L106.723 31.2287C106.723 31.2287 106.647 31.1368 106.57 31.2287L106.555 31.0908Z" fill="url(#paint0_linear_400_182)"/>
<path d="M102.081 24.3182C81.38 -3.95241 37.8477 1.01218 37.8477 1.01218L72.6154 27.3367L62.0272 29.436L80.6139 40.07L93.5771 38.7063C108.011 34.232 102.081 24.3182 102.081 24.3182Z" fill="white"/>
<path opacity="0.9" d="M70.3931 26.7546L42.9803 5.99219C28.8526 8.50513 14.541 20.2884 14.541 20.2884L43.6546 28.9304L31.764 30.6925L49.7991 41.0048L74.4077 37.3886L59.4525 28.8078L70.3931 26.7546Z" fill="white"/>
<path opacity="0.8" d="M17.9585 61.2917L27.4893 56.5723C36.0548 42.7818 45.3558 39.3495 45.3558 39.3495L30.3087 30.355L41.3412 28.8227L17.2842 22.1113C0.735498 38.8745 0 64.0345 0 64.0345L20.0424 52.9868L17.9585 61.2917Z" fill="white"/>
<path opacity="0.7" d="M29.2659 83.3726C22.1407 75.0064 23.1367 60.986 23.1367 59.8521L17.2067 62.2578L18.6011 54.9795L2.52734 64.3264C3.47793 71.7524 5.90498 78.9131 9.66549 85.3867C13.426 91.8603 18.444 97.5159 24.4238 102.02V89.1647L29.2352 92.2292L29.2659 83.3726Z" fill="white"/>
<path opacity="0.6" d="M64.9385 69.5513C51.3778 59.9593 44.4518 75.4506 44.4518 75.4506C56.7101 68.7699 61.4755 75.1135 61.4755 75.1135C57.9819 74.7151 54.6569 78.5612 54.6109 78.6225C54.5649 78.6837 55.1779 78.1628 60.6481 79.2507C66.3636 80.3846 70.654 98.9711 55.515 100.703C40.3759 102.434 30.5539 89.4097 30.5539 89.4097V94.4356L25.957 91.6928L26.1716 101.024C26.1716 101.024 34.4153 111.306 50.6882 109.023C66.9612 106.74 70.7153 96.9638 70.7153 96.9638C70.7153 96.9638 78.2848 79.0362 64.9385 69.5513Z" fill="white"/>
<path d="M117.986 68.0955C120.652 70.685 121.97 74.5158 121.97 79.6029V99.5226H111.887V81.1352C112.046 78.9382 111.398 76.7588 110.064 75.0061C109.403 74.291 108.591 73.7317 107.687 73.3686C106.784 73.0056 105.811 72.8479 104.839 72.9069C103.708 72.845 102.578 73.0233 101.521 73.43C100.465 73.8367 99.5067 74.4627 98.7096 75.2666C97.049 77.2284 96.2335 79.7685 96.4418 82.3304V99.5226H86.3594V51.5469H96.4418V68.31C97.8191 66.9477 99.4767 65.9019 101.299 65.2455C103.285 64.5116 105.388 64.148 107.505 64.1729C109.426 64.0883 111.344 64.392 113.145 65.066C114.946 65.74 116.592 66.7704 117.986 68.0955Z" fill="white"/>
<path d="M157.536 68.0646C160.427 70.6184 161.872 74.49 161.872 79.6793V99.599H152.433V95.186C150.533 98.4344 146.994 100.043 141.83 100.043C139.439 100.106 137.064 99.6408 134.873 98.6796C133.047 97.8937 131.487 96.595 130.384 94.9408C129.347 93.3188 128.814 91.426 128.851 89.5012C128.79 88.0223 129.092 86.551 129.731 85.2156C130.369 83.8801 131.324 82.7212 132.514 81.8398C134.935 79.9705 138.684 79.0358 143.761 79.0358H151.79C151.847 78.0927 151.697 77.1484 151.35 76.2695C151.004 75.3906 150.468 74.5984 149.783 73.9486C148.06 72.6406 145.918 72.0084 143.761 72.1711C141.907 72.1706 140.066 72.4654 138.306 73.0445C136.647 73.5546 135.09 74.3534 133.709 75.4043L130.154 68.4171C132.235 67.0138 134.541 65.9773 136.973 65.3525C139.637 64.6151 142.39 64.244 145.155 64.2493C150.528 64.2288 154.655 65.5006 157.536 68.0646ZM148.94 92.0601C150.276 91.2584 151.285 90.0101 151.79 88.5359V84.981H144.864C140.727 84.981 138.658 86.3294 138.658 89.0569C138.64 89.6546 138.771 90.2473 139.038 90.7822C139.306 91.317 139.702 91.7771 140.19 92.1214C141.421 92.938 142.883 93.3357 144.358 93.2553C145.966 93.284 147.551 92.8706 148.94 92.0601Z" fill="white"/>
<path d="M225.921 68.0646C228.495 70.6235 229.752 74.4389 229.752 79.6026V99.5223H219.654V81.1349C219.815 78.9542 219.208 76.7857 217.938 75.0058C217.344 74.3095 216.6 73.7582 215.76 73.3943C214.921 73.0304 214.009 72.8636 213.096 72.9066C212.046 72.8558 210.999 73.0336 210.025 73.4279C209.051 73.8221 208.175 74.4232 207.457 75.1897C205.925 77.1524 205.187 79.6189 205.388 82.1003V99.5223H195.306V81.1349C195.306 75.6494 193.115 72.9219 188.717 72.9219C187.68 72.8762 186.645 73.0567 185.684 73.4509C184.724 73.8452 183.861 74.4437 183.155 75.205C181.615 77.158 180.87 79.6212 181.071 82.1003V99.5223H170.988V64.7395H180.626V68.7388C181.929 67.2679 183.555 66.1192 185.377 65.3831C187.323 64.5953 189.406 64.1995 191.506 64.2186C193.816 64.2109 196.096 64.7352 198.171 65.7508C200.123 66.6497 201.791 68.0643 202.998 69.842C204.437 68.0277 206.292 66.5874 208.407 65.6436C210.646 64.6171 213.084 64.0941 215.547 64.1113C217.454 64.0302 219.358 64.339 221.142 65.0188C222.925 65.6985 224.552 66.7349 225.921 68.0646Z" fill="white"/>
<path d="M273.099 84.9816H246.79C247.204 87.0536 248.407 88.8835 250.146 90.0841C252.089 91.3875 254.396 92.0419 256.734 91.9534C258.379 91.9851 260.015 91.715 261.561 91.1567C263.022 90.5744 264.351 89.7042 265.469 88.5977L270.847 94.4204C267.568 98.1694 262.782 100.044 256.489 100.044C252.883 100.116 249.311 99.3277 246.07 97.7455C243.18 96.3311 240.755 94.1192 239.082 91.3712C237.432 88.5919 236.583 85.4097 236.631 82.1775C236.59 78.9503 237.427 75.7726 239.052 72.9838C240.642 70.2764 242.949 68.0602 245.717 66.5789C248.609 65.0874 251.813 64.3002 255.067 64.2816C258.321 64.2629 261.533 65.0133 264.442 66.4716C267.167 67.911 269.422 70.102 270.939 72.7846C272.558 75.6956 273.372 78.9853 273.299 82.3154C273.299 82.392 273.237 83.2961 273.099 84.9816ZM249.502 73.7959C247.911 75.1151 246.876 76.9869 246.606 79.0363H263.752C263.487 76.9872 262.472 75.1092 260.902 73.7653C259.308 72.4307 257.28 71.7273 255.202 71.7886C253.122 71.7472 251.097 72.4602 249.502 73.7959Z" fill="white"/>
<path d="M280.027 51.5469H290.11V99.5226H280.027V51.5469Z" fill="white"/>
<path d="M333.381 84.9816H307.056C307.476 87.0512 308.678 88.879 310.412 90.0841C312.383 91.4034 314.724 92.0584 317.093 91.9535C318.732 91.9853 320.363 91.7152 321.904 91.1567C323.372 90.5786 324.706 89.7079 325.827 88.5978L331.19 94.4205C327.911 98.1694 323.125 100.044 316.832 100.044C313.231 100.117 309.664 99.3293 306.428 97.7455C303.538 96.3311 301.114 94.1193 299.441 91.3712C297.846 88.5695 297.008 85.4012 297.008 82.1775C297.008 78.9538 297.846 75.7856 299.441 72.9839C301.018 70.2715 303.321 68.0533 306.091 66.5789C308.97 65.0879 312.16 64.2957 315.403 64.2665C318.645 64.2372 321.849 64.9716 324.754 66.4104C327.483 67.8448 329.739 70.037 331.251 72.7234C332.87 75.6344 333.685 78.924 333.611 82.2542C333.565 82.3921 333.504 83.2961 333.381 84.9816ZM309.769 73.796C308.199 75.1245 307.187 76.9954 306.934 79.0364H324.065C323.807 76.985 322.79 75.1045 321.215 73.7653C319.625 72.4621 317.615 71.7814 315.561 71.85C313.458 71.7759 311.4 72.4674 309.769 73.796Z" fill="white"/>
<path d="M346.988 97.7452C344.165 96.2986 341.802 94.0905 340.169 91.3709C338.553 88.5569 337.703 85.3686 337.703 82.1236C337.703 78.8787 338.553 75.6904 340.169 72.8763C341.808 70.165 344.169 67.9632 346.988 66.5173C350.038 64.9523 353.428 64.1629 356.856 64.2189C360.27 64.1596 363.645 64.9494 366.678 66.5173C369.489 67.9768 371.839 70.189 373.466 72.907C375.082 75.721 375.932 78.9093 375.932 82.1543C375.932 85.3992 375.082 88.5875 373.466 91.4016C371.84 94.1159 369.489 96.3232 366.678 97.7759C363.645 99.3438 360.27 100.134 356.856 100.074C353.425 100.121 350.036 99.3209 346.988 97.7452ZM363.215 89.1491C364.83 87.167 365.712 84.6883 365.712 82.1313C365.712 79.5743 364.83 77.0956 363.215 75.1134C362.41 74.2608 361.434 73.5869 360.352 73.1355C359.27 72.6841 358.105 72.4653 356.932 72.4932C355.741 72.4576 354.555 72.6724 353.452 73.1237C352.349 73.5751 351.352 74.2529 350.527 75.1134C348.893 77.0868 347.998 79.5689 347.998 82.1313C347.998 84.6937 348.893 87.1757 350.527 89.1491C351.352 90.0096 352.349 90.6875 353.452 91.1388C354.555 91.5902 355.741 91.805 356.932 91.7693C358.105 91.7972 359.27 91.5784 360.352 91.127C361.434 90.6756 362.41 90.0017 363.215 89.1491Z" fill="white"/>
<path d="M414.24 68.0958C416.896 70.6802 418.224 74.516 418.224 79.6032V99.5228H408.141V81.1355C408.3 78.9385 407.652 76.759 406.318 75.0063C405.657 74.2912 404.845 73.7319 403.941 73.3689C403.038 73.0059 402.065 72.8481 401.093 72.9071C399.962 72.8433 398.831 73.0206 397.774 73.4275C396.717 73.8343 395.759 74.4613 394.964 75.2668C393.315 77.2171 392.5 79.7382 392.696 82.2847V99.5228H382.613V64.7401H392.251V68.8159C393.627 67.3136 395.331 66.1494 397.231 65.4143C399.31 64.5984 401.526 64.1925 403.759 64.2191C405.677 64.1284 407.593 64.4249 409.394 65.091C411.194 65.757 412.843 66.7789 414.24 68.0958Z" fill="white"/>
<g opacity="0.9">
<path d="M89.209 18.3755C89.6989 18.1356 90.1265 17.7855 90.4582 17.3527L90.1053 17.127C89.9687 17.6384 89.6499 18.0823 89.209 18.3755V18.3755Z" stroke="#4CB166" stroke-miterlimit="10"/>
<path d="M91.1643 17.7763C90.7554 18.3254 90.2229 18.7705 89.6098 19.0757C88.9968 19.3808 88.3204 19.5374 87.6356 19.5327C87.0637 19.5327 86.4975 19.4201 85.9692 19.2014C85.4409 18.9827 84.9609 18.6621 84.5565 18.2579C84.1522 17.8538 83.8314 17.374 83.6126 16.846C83.3938 16.3179 83.2811 15.752 83.2811 15.1804C83.2783 14.4411 83.4629 13.7131 83.8175 13.0643L77 8.67676C82.4907 29.9019 93.5991 19.3422 93.5991 19.3422L91.1643 17.7763Z" stroke="#4CB166" stroke-miterlimit="10"/>
<path d="M85.8369 16.5425C85.838 16.2219 85.9093 15.9055 86.0459 15.6154C86.1824 15.3254 86.3809 15.0688 86.6274 14.8637L84.5101 13.5234C84.235 14.0325 84.0918 14.6024 84.0938 15.1811C84.0938 16.1165 84.4656 17.0136 85.1273 17.675C85.7891 18.3364 86.6866 18.708 87.6225 18.708H87.8201C87.2791 18.6588 86.7759 18.4095 86.4091 18.009C86.0423 17.6085 85.8382 17.0855 85.8369 16.5425V16.5425Z" stroke="#4CB166" stroke-miterlimit="10"/>
<path d="M87.6705 19.5325C88.3553 19.5372 89.0317 19.3807 89.6447 19.0755C90.2578 18.7704 90.7903 18.3252 91.1992 17.7761L90.4935 17.3388C90.1574 17.7793 89.7221 18.1346 89.2231 18.3757C88.8718 18.6086 88.4589 18.7314 88.0374 18.7284H87.6845C86.7486 18.7284 85.8511 18.3568 85.1893 17.6954C84.5276 17.0339 84.1558 16.1368 84.1558 15.2014C84.1539 14.6228 84.2971 14.0529 84.5722 13.5438L83.8665 13.1064C83.5119 13.7553 83.3274 14.4833 83.3301 15.2226C83.3412 16.3671 83.8029 17.4612 84.6153 18.2678C85.4277 19.0745 86.5253 19.5289 87.6705 19.5325V19.5325Z" stroke="#4CB166" stroke-miterlimit="10"/>
<path d="M90.1258 17.1135L86.5971 14.8633C86.3506 15.0684 86.1521 15.325 86.0156 15.6151C85.879 15.9051 85.8077 16.2215 85.8066 16.5421C85.8054 17.0954 86.0147 17.6285 86.3921 18.0333C86.7696 18.438 87.2869 18.6841 87.8392 18.7218C88.3046 18.6962 88.7603 18.5787 89.1801 18.3761C89.6424 18.0885 89.98 17.6379 90.1258 17.1135Z" stroke="#4CB166" stroke-miterlimit="10"/>
<path d="M88.0245 18.7638C88.446 18.7669 88.8588 18.644 89.2101 18.4111C88.7903 18.6137 88.3346 18.7312 87.8691 18.7568L88.0245 18.7638Z" stroke="#4CB166" stroke-miterlimit="10"/>
</g>
<defs>
<linearGradient id="paint0_linear_400_182" x1="91.9213" y1="40.2079" x2="455.641" y2="32.7303" gradientUnits="userSpaceOnUse">
<stop stop-color="#F3A319"/>
<stop offset="1" stop-color="#EBD74D"/>
</linearGradient>
</defs>
</svg>
